<svg xmlns="http://www.w3.org/2000/svg" xmlns:xlink="http://www.w3.org/1999/xlink" width="552.6" height="346.1" viewBox="0 0 146.2 91.6"><defs><clipPath id="a" clipPathUnits="userSpaceOnUse"><path d="M-208 1129h716V486h-716z"/></clipPath><clipPath id="b" clipPathUnits="userSpaceOnUse"><path d="M-208 1129h716V486h-716z"/></clipPath><clipPath id="c" clipPathUnits="userSpaceOnUse"><path d="M190 1088h660V433H190Z"/></clipPath><clipPath id="d" clipPathUnits="userSpaceOnUse"><path d="M190 1088h660V433H190Z"/></clipPath><clipPath id="e" clipPathUnits="userSpaceOnUse"><path d="M584 1013h719V420H584Z"/></clipPath><clipPath id="f" clipPathUnits="userSpaceOnUse"><path d="M584 1013h719V420H584Z"/></clipPath><clipPath id="g" clipPathUnits="userSpaceOnUse"><path d="M932 924h612V245H932Z"/></clipPath><clipPath id="h" clipPathUnits="userSpaceOnUse"><path d="M932 924h612V245H932Z"/></clipPath><clipPath id="i" clipPathUnits="userSpaceOnUse"><path d="M726 1380h683V839H726Z"/></clipPath><clipPath id="j" clipPathUnits="userSpaceOnUse"><path d="M726 1380h683V839H726Z"/></clipPath><clipPath id="k" clipPathUnits="userSpaceOnUse"><path d="M1090 948h677V266h-677z"/></clipPath><clipPath id="l" clipPathUnits="userSpaceOnUse"><path d="M1090 948h677V266h-677z"/></clipPath><clipPath id="m" clipPathUnits="userSpaceOnUse"><path d="M-646 994H38V383h-684z"/></clipPath><clipPath id="n" clipPathUnits="userSpaceOnUse"><path d="M-646 994H38V383h-684z"/></clipPath><clipPath id="o" clipPathUnits="userSpaceOnUse"><path d="M-293 920h671V242h-671z"/></clipPath><clipPath id="p" clipPathUnits="userSpaceOnUse"><path d="M-293 920h671V242h-671z"/></clipPath><clipPath id="q" clipPathUnits="userSpaceOnUse"><path d="M112 768h713V175H112Z"/></clipPath><clipPath id="r" clipPathUnits="userSpaceOnUse"><path d="M112 768h713V175H112Z"/></clipPath><clipPath id="s" clipPathUnits="userSpaceOnUse"><path d="M442 597h563V-62H442Z"/></clipPath><clipPath id="t" clipPathUnits="userSpaceOnUse"><path d="M442 597h563V-62H442Z"/></clipPath><clipPath id="u" clipPathUnits="userSpaceOnUse"><path d="M312 1063h674V507H312Z"/></clipPath><clipPath id="v" clipPathUnits="userSpaceOnUse"><path d="M312 1063h674V507H312Z"/></clipPath><clipPath id="w" clipPathUnits="userSpaceOnUse"><path d="M568 606h669V-77H568Z"/></clipPath><clipPath id="x" clipPathUnits="userSpaceOnUse"><path d="M568 606h669V-77H568Z"/></clipPath><clipPath id="y" clipPathUnits="userSpaceOnUse"><path d="M-610 1182h757V383h-757z"/></clipPath><clipPath id="z" clipPathUnits="userSpaceOnUse"><path d="M-610 1182h757V383h-757z"/></clipPath><clipPath id="A" clipPathUnits="userSpaceOnUse"><path d="M-168 849h778V105h-778z"/></clipPath><clipPath id="B" clipPathUnits="userSpaceOnUse"><path d="M-168 849h778V105h-778z"/></clipPath><clipPath id="C" clipPathUnits="userSpaceOnUse"><path d="M150 522h684v-767H150Z"/></clipPath><clipPath id="D" clipPathUnits="userSpaceOnUse"><path d="M150 522h684v-767H150Z"/></clipPath><clipPath id="E" clipPathUnits="userSpaceOnUse"><path d="M142 1118h758V369H142Z"/></clipPath><clipPath id="F" clipPathUnits="userSpaceOnUse"><path d="M142 1118h758V369H142Z"/></clipPath><clipPath id="G" clipPathUnits="userSpaceOnUse"><path d="M235 485h718v-796H235Z"/></clipPath><clipPath id="H" clipPathUnits="userSpaceOnUse"><path d="M235 485h718v-796H235Z"/></clipPath><linearGradient id="I"><stop offset="0" style="stop-color:#000;stop-opacity:1"/><stop offset="1" style="stop-color:#000;stop-opacity:1"/></linearGradient><linearGradient xlink:href="#I" id="J" x1="25" x2="171.1" y1="105.6" y2="105.6" gradientUnits="userSpaceOnUse"/></defs><g style="display:inline"><g style="display:inline;fill:none;fill-opacity:1;stroke-width:.0996473"><path d="M64 65h68v-4l13-1c11 0 23 26 26 55s-10 36-10 36-8 4-18-9l-13-23s-11 8-19 0H85M64 65v-4l-13-1c-11 0-22 26-25 55-4 29 9 36 9 36s8 4 18-10c9-13 13-22 13-22s11 8 19 0" style="fill:url(#J);fill-opacity:1;stroke:#000;stroke-width:.026365px;stroke-linecap:butt;stroke-linejoin:miter;stroke-opacity:1" transform="translate(-25 -60)"/></g></g></svg>